<?xml version="1.0" encoding="utf-8"?>
<!-- Svg Vector Icons : http://www.onlinewebfonts.com/icon -->
<!DOCTYPE svg PUBLIC "-//W3C//DTD SVG 1.1//EN" "http://www.w3.org/Graphics/SVG/1.1/DTD/svg11.dtd">
<svg version="1.1" xmlns="http://www.w3.org/2000/svg" xmlns:xlink="http://www.w3.org/1999/xlink" x="0px" y="0px" viewBox="0 0 256 256" enable-background="new 0 0 256 256" xml:space="preserve">
<metadata> Svg Vector Icons : http://www.onlinewebfonts.com/icon </metadata>
<g><g><g><g><path fill="#000000" d="M199.8,123c-21.9,10.2-44.5,18.9-67.4,26.8c-4-13-6.3-24-9.7-39.6c-1.4-6.5-4.5-12.3-8.8-16.7c12.6-18.8,25.3-37.5,38-56.3c11.9-17.6-14.1-38.1-26.1-20.4c-17.3,25.7-34.6,51.4-51.9,77.1c-0.7,1-1.3,2.1-1.7,3.1c-4.5,5.7-6.9,12.9-5.3,20.3c4,18.7,8.1,37.5,14,55.8c2.2,6.7,7.2,11.7,13.4,14.6c0.6,0.5,1.1,1,1.8,1.4c30.8,21,62.8,40,96.8,55.4c19.4,8.8,32.2-21.7,12.7-30.6c-21.4-9.7-41.8-20.9-61.7-33.1c23.1-7.9,45.9-16.7,68-27C231.3,144.8,219.1,114,199.8,123z"/><path fill="#000000" d="M84.6,70c9.6-12.2,7.4-29.9-4.8-39.5c-12.2-9.6-29.9-7.4-39.5,4.8c-9.6,12.2-7.4,29.9,4.8,39.5C57.3,84.4,75,82.3,84.6,70z"/></g></g><g></g><g></g><g></g><g></g><g></g><g></g><g></g><g></g><g></g><g></g><g></g><g></g><g></g><g></g><g></g></g></g>
</svg>